<svg id="Capa_1" enable-background="new 0 0 512 512" height="512" viewBox="0 0 512 512" width="512" xmlns="http://www.w3.org/2000/svg" xmlns:xlink="http://www.w3.org/1999/xlink"><linearGradient id="SVGID_1_" gradientTransform="matrix(1 0 0 -1 0 514)" gradientUnits="userSpaceOnUse" x1="69.186" x2="419.498" y1="90.304" y2="440.616"><stop offset="0" stop-color="#ffb1b4"/><stop offset=".033" stop-color="#f587a1"/><stop offset="1" stop-color="#f5b02e"/></linearGradient><path d="m379.828 224.227c2.572-1.402 4.173-4.097 4.172-7.027.051-20.917-6.262-41.355-18.1-58.6l4.55-4.55c19.109-19.049 28.395-45.828 25.18-72.617l-3.68-33.118c-.488-4.391-4.444-7.555-8.835-7.067-.713.079-1.412.254-2.079.52l-29.692 11.841c-26.524 10.726-46.21 33.636-52.823 61.472-6.104-1.189-12.303-1.819-18.521-1.881h-48c-6.218.059-12.417.685-18.521 1.871-6.617-27.837-26.309-50.745-52.838-61.465l-29.68-11.836c-4.104-1.636-8.758.364-10.394 4.468-.266.667-.441 1.366-.52 2.079l-3.758 33.774c-2.987 26.583 6.312 53.077 25.258 71.961l4.553 4.548c-11.838 17.245-18.15 37.683-18.1 58.6 0 2.928 1.601 5.623 4.172 7.024l87.02 47.465.211.211c-3.987 2.374-7.667 5.229-10.958 8.5-10.58 10.454-16.507 24.726-16.445 39.6v16h-56c-35.346 0-64 28.654-64 64s28.654 64 64 64h200c26.51 0 48-21.49 48-48s-21.49-48-48-48h-16v-48c-.023-19.736-10.462-37.994-27.459-48.025l.3-.3zm-20.687-81.485-3.311 3.311c-5.787-6.144-12.308-11.551-19.418-16.1 6.594-13.197 17.566-23.695 31.041-29.7l12.669-5.73c-.611 18.156-8.113 35.397-20.981 48.219zm-1.86-74.273 19.93-7.946 1.878 16.9-18.214 8.239c-16.671 7.442-30.274 20.393-38.526 36.679-2.776-1.234-5.549-2.305-8.358-3.26 5.338-22.908 21.486-41.788 43.29-50.612zm-202.578 0c21.813 8.819 37.968 27.702 43.306 50.617-2.836.962-5.6 2.026-8.322 3.239-8.283-16.264-21.886-29.199-38.546-36.653l-18.227-8.245 1.875-16.9zm-22.73 26.093 12.589 5.7c13.41 5.998 24.351 16.423 30.989 29.528-6.189 3.985-11.932 8.625-17.129 13.839-.785.785-1.441 1.67-2.2 2.48l-3.363-3.363c-12.821-12.831-20.287-30.055-20.886-48.184zm30.886 68.138c7.3-9.3 16.419-17.014 26.8-22.672 6.208-3.467 12.846-6.101 19.742-7.835 7.365-2.003 14.966-3.01 22.599-2.993h48c7.688-.016 15.342 1.004 22.758 3.031 6.617 1.697 19.57 7.819 19.867 7.977 26.579 14.652 43.697 42.002 45.258 72.312l-71.875 39.2v-21.267c-.02-6.369 2.509-12.482 7.023-16.976l14.633-14.625-11.312-11.313-14.633 14.625c-7.525 7.487-11.742 17.674-11.711 28.289v31.43l-24 24-24-24v-28.683c-.035-12.584-5.959-24.426-16.008-32l-19.195-14.4-9.594 12.8 19.187 14.4c6.03 4.545 9.586 11.649 9.61 19.2v18.538l-71.891-39.21c.912-18.154 7.464-35.572 18.742-49.828zm68.507 285.3h-74.421l2.211-4.422c1.125-2.253 1.125-4.903 0-7.156l-6.211-12.422 6.211-12.422c1.125-2.253 1.125-4.903 0-7.156l-.844-1.688c-2.408-4.83-4.157-9.962-5.2-15.257l38.813 12.929c21.146 7.047 36.443 25.507 39.441 47.594zm-143.366-48c-.007-26.502 21.472-47.993 47.974-48h.026 56v31.57l-45.469-15.156c-4.185-1.402-8.715.854-10.117 5.039-.275.821-.415 1.681-.414 2.547.016 11.042 2.428 21.95 7.07 31.969l-6.226 12.453c-1.125 2.253-1.125 4.903 0 7.156l6.211 12.422-4 8h-3.055c-26.498-.029-47.971-21.502-48-48zm200 48v-88h-16v88h-24.479c-.94-8.93-3.488-17.616-7.521-25.639v-62.361h-16v41.229c-4.81-4.464-10.19-8.271-16-11.322v-61.907h21.578l13.078 8.719c8.053 5.443 18.605 5.449 26.664.015l13.1-8.734h21.58v120zm48-64c17.673 0 32 14.327 32 32s-14.327 32-32 32h-16v-64zm-32.9-72h-23.1c-1.579.001-3.124.468-4.438 1.344l-15.14 10.094c-2.689 1.783-6.185 1.777-8.867-.016l-15.117-10.078c-1.314-.876-2.859-1.343-4.438-1.344h-23.2c1.54-7.695 5.347-14.753 10.931-20.266 3.327-3.322 7.202-6.043 11.456-8.044l19.162 19.162c3.124 3.123 8.188 3.123 11.312 0l19.1-19.095c11.512 5.329 19.805 15.813 22.339 28.243z" fill="url(#SVGID_1_)"/></svg>
