<svg height="512pt" viewBox="0 -44 512.01162 512" width="512pt" xmlns="http://www.w3.org/2000/svg"><path d="m84.21875 377.949219c-.632812 4.085937 2.945312 7.664062 7.03125 7.03125 19.035156-2.941407 40.3125 5.738281 64.269531-18.21875 14.089844-14.09375 19.636719-41.59375 4.074219-57.15625s-43.0625-10.015625-57.15625 4.074219c-23.957031 23.957031-15.277344 45.234374-18.21875 64.269531zm0 0" fill="#4e5660"/><path d="m173.230469 424.21875c-9.902344 0-18.1875-7.75-18.730469-17.757812-1.253906-23.074219-2.144531-50.226563 3.191406-80.414063 1.804688-10.210937 11.539063-17.019531 21.75-15.21875 10.210938 1.804687 17.023438 11.542969 15.21875 21.753906-4.640625 26.261719-3.8125 50.855469-2.671875 71.84375.566407 10.351563-7.371093 19.199219-17.722656 19.761719-.347656.019531-.691406.03125-1.035156.03125zm0 0" fill="#e9901b"/><path d="m252.769531 424.21875c-.34375 0-.6875-.011719-1.035156-.03125-10.355469-.5625-18.289063-9.410156-17.726563-19.761719 1.140626-20.992187 1.96875-45.585937-2.671874-71.84375-1.804688-10.210937 5.011718-19.949219 15.21875-21.753906 10.210937-1.808594 19.949218 5.007813 21.753906 15.21875 5.335937 30.183594 4.441406 57.335937 3.1875 80.414063-.542969 10.007812-8.828125 17.757812-18.726563 17.757812zm0 0" fill="#e9901b"/><path d="m59.839844 287.425781c-3.589844 0-7.222656-1.027343-10.429688-3.175781-8.613281-5.769531-10.917968-17.429688-5.148437-26.042969 11.21875-16.753906 27.414062-29.101562 48.132812-36.707031 19.59375-7.191406 38.375-8.320312 50.691407-7.988281 10.363281.269531 18.542968 8.894531 18.269531 19.257812-.269531 10.195313-8.617188 18.277344-18.753907 18.277344-.167968 0-.335937 0-.503906-.003906-11.035156-.289063-48.4375.871093-66.644531 28.054687-3.621094 5.40625-9.558594 8.328125-15.613281 8.328125zm0 0" fill="#e9901b"/><path d="m366.882812 285.464844c-1.457031 0-2.9375-.167969-4.421874-.527344-32.941407-7.953125-56.820313-18.832031-82.425782-37.546875-8.371094-6.121094-10.195312-17.867187-4.074218-26.234375 6.121093-8.371094 17.863281-10.195312 26.234374-4.078125 21.300782 15.574219 41.3125 24.660156 69.078126 31.363281 10.078124 2.433594 16.273437 12.574219 13.84375 22.652344-2.078126 8.601562-9.761719 14.371094-18.234376 14.371094zm0 0" fill="#e9901b"/><path d="m213 349.15625c58.195312 0 99.722656-27.769531 95.832031-85.558594-3.914062-58.140625-50.820312-105.378906-95.832031-105.378906-45.015625 0-91.921875 47.238281-95.832031 105.378906-3.890625 57.789063 37.632812 85.558594 95.832031 85.558594zm0 0" fill="#eea849"/><path d="m69.507812 104.4375c-25.40625-23.742188-30.664062-64.761719-25.667968-93.359375 1.097656-6.273437 6.496094-10.910156 12.863281-11.0390625 31.296875-.6289065 71.972656 7.1523435 89.117187 40.5195315zm0 0" fill="#4e5660"/><path d="m43.699219 11.945312c-4.742188 28.554688.65625 68.988282 25.808593 92.492188l47.65625-39.894531c-15.277343-23.382813-41.875-43.449219-73.464843-52.597657zm0 0" fill="#f2d1a5"/><path d="m356.488281 104.4375c25.410157-23.742188 30.667969-64.761719 25.667969-93.359375-1.097656-6.273437-6.496094-10.910156-12.863281-11.0390625-31.296875-.6289065-71.972657 7.1523435-89.113281 40.5195315zm0 0" fill="#4e5660"/><path d="m382.296875 11.945312c4.742187 28.554688-.652344 68.988282-25.808594 92.492188l-47.65625-39.894531c15.28125-23.382813 41.875-43.449219 73.464844-52.597657zm0 0" fill="#f2d1a5"/><path d="m213 22.308594c108.328125 0 110.652344 65.679687 174.652344 103.214844 12.101562 7.097656 14.640625 23.53125 4.972656 33.691406-42.347656 44.503906-103.847656 75.863281-179.625 75.863281s-137.28125-31.359375-179.625-75.863281c-9.671875-10.160156-7.128906-26.59375 4.972656-33.691406 63.996094-37.535157 66.320313-103.214844 174.652344-103.214844zm0 0" fill="#eea849"/><path d="m152.445312 31.816406c-52.199218 19.5625-65.003906 64.914063-114.097656 93.710938-12.101562 7.097656-14.644531 23.527344-4.972656 33.691406 42.34375 44.5 103.847656 75.859375 179.625 75.859375 8.699219 0 17.207031-.433594 25.523438-1.234375-135.125-18.183594-126.90625-147.328125-86.078126-202.027344zm0 0" fill="#e9901b"/><path d="m392.625 159.214844c6.046875-6.355469 7.316406-15.164063 4.460938-22.609375-99.632813 58.171875-128.144532-29.445313-184.085938-29.445313s-84.457031 87.617188-184.085938 29.445313c-2.859374 7.445312-1.589843 16.253906 4.460938 22.609375 42.34375 44.503906 103.847656 75.863281 179.625 75.863281s137.277344-31.359375 179.625-75.863281zm0 0" fill="#f7ef87"/><path d="m129.757812 147.574219c-25.121093 11.808593-55.671874 15.40625-100.84375-10.96875-2.859374 7.445312-1.589843 16.253906 4.460938 22.609375 42.34375 44.503906 103.847656 75.863281 179.625 75.863281 8.699219 0 17.203125-.433594 25.523438-1.234375-66.988282-9.011719-98.746094-45.300781-108.765626-86.269531zm0 0" fill="#efd176"/><path d="m148.816406 134.539062c0-15.628906-15.910156-28.300781-35.539062-28.300781s-35.539063 12.671875-35.539063 28.300781c0 15.632813 15.910157 28.300782 35.539063 28.300782s35.539062-12.667969 35.539062-28.300782zm0 0" fill="#fff"/><path d="m348.257812 134.539062c0-15.628906-15.910156-28.300781-35.535156-28.300781-19.628906 0-35.539062 12.671875-35.539062 28.300781 0 15.632813 15.910156 28.300782 35.539062 28.300782 19.625 0 35.535156-12.667969 35.535156-28.300782zm0 0" fill="#fff"/><g fill="#4e5660"><path d="m133.988281 113.804688c-4.140625 0-7.5-3.355469-7.5-7.5v-12.550782c0-4.140625 3.359375-7.5 7.5-7.5 4.144531 0 7.5 3.359375 7.5 7.5v12.550782c0 4.144531-3.355469 7.5-7.5 7.5zm0 0"/><path d="m292.007812 113.804688c-4.140624 0-7.5-3.355469-7.5-7.5v-12.550782c0-4.140625 3.359376-7.5 7.5-7.5 4.144532 0 7.5 3.359375 7.5 7.5v12.550782c0 4.144531-3.355468 7.5-7.5 7.5zm0 0"/><path d="m228.855469 128.246094c-10.394531-2.71875-21.316407-2.71875-31.710938 0-4.304687 1.128906-8.058593 3.777344-10.558593 7.457031-3.378907 4.96875-1.4375 11.785156 4.054687 14.226563l15.234375 6.777343c4.535156 2.015625 9.714844 2.015625 14.25 0l15.234375-6.777343c5.492187-2.441407 7.433594-9.257813 4.054687-14.226563-2.503906-3.679687-6.253906-6.328125-10.558593-7.457031zm0 0"/><path d="m227.074219 184.347656c0-8.652344-6.300781-15.667968-14.074219-15.667968-7.777344 0-14.078125 7.015624-14.078125 15.667968 0 8.648438 6.300781 15.664063 14.078125 15.664063 7.773438 0 14.074219-7.015625 14.074219-15.664063zm0 0"/></g><path d="m412.996094 240.253906-24.449219-24.449218-19.613281 13.871093c-14.976563 10.589844-27.386719 24.402344-36.316406 40.421875-3.71875 6.664063-2.558594 14.984375 2.835937 20.378906l2.871094 2.871094c5.394531 5.394532 13.714843 6.554688 20.378906 2.839844 16.019531-8.933594 29.832031-21.34375 40.421875-36.320312zm0 0" fill="#f7ef87"/><path d="m343.484375 253.832031c-4.039063 5.109375-7.679687 10.542969-10.871094 16.265625-3.714843 6.664063-2.554687 14.984375 2.839844 20.378906l2.871094 2.871094c5.394531 5.394532 13.714843 6.554688 20.378906 2.835938 5.722656-3.1875 11.15625-6.832032 16.265625-10.867188zm0 0" fill="#89d47f"/><path d="m368.933594 229.675781c-3.082032 2.179688-6.046875 4.5-8.902344 6.945313 7.855469 13.214844 18.933594 24.292968 32.148438 32.148437 2.445312-2.855469 4.765624-5.820312 6.945312-8.902343l13.871094-19.613282-24.449219-24.449218zm0 0" fill="#efd176"/><path d="m450.753906 117.742188c-39.765625-6.457032-77.234375 20.550781-83.6875 60.316406s20.550782 77.234375 60.316406 83.6875c39.765626 6.453125 77.234376-20.550782 83.6875-60.316406 6.453126-39.765626-20.550781-77.234376-60.316406-83.6875zm0 0" fill="#8eafe2"/><path d="m450.753906 117.742188c-39.765625-6.457032-77.234375 20.550781-83.6875 60.316406s20.550782 77.234375 60.316406 83.6875c39.765626 6.453125 77.234376-20.550782 83.6875-60.316406 6.453126-39.765626-20.550781-77.234376-60.316406-83.6875zm0 0" fill="#8eafe2"/><path d="m495.632812 235.773438c-85.488281 3.636718-106.160156-83.289063-81.667968-114.539063-27.925782 10.226563-47.851563 37.042969-47.851563 68.511719 0 40.285156 32.65625 72.941406 72.941407 72.941406 22.832031 0 43.203124-10.492188 56.578124-26.914062zm0 0" fill="#6a96d7"/><path d="m479.800781 189.746094c0 22.5-18.242187 40.742187-40.742187 40.742187-22.503906 0-40.746094-18.242187-40.746094-40.742187 0-22.503906 18.242188-40.746094 40.746094-40.746094 22.5 0 40.742187 18.242188 40.742187 40.746094zm0 0" fill="#a3defe"/><path d="m416.226562 155.996094c-8.707031 5.902344-15.007812 15.085937-17.128906 25.777344l47.929688 47.929687c10.6875-2.121094 19.875-8.417969 25.777344-17.128906zm0 0" fill="#7acefa"/><path d="m94.40625 287.28125-35.167969 35.171875c-4.078125 4.074219-10.691406 4.074219-14.765625 0l-41.414062-41.414063c-4.078125-4.078124-4.078125-10.691406 0-14.765624l35.171875-35.171876c4.074219-4.078124 10.6875-4.078124 14.761719 0l41.414062 41.414063c4.078125 4.074219 4.078125 10.6875 0 14.765625zm0 0" fill="#fcf2d0"/><path d="m42.316406 228.585938c-1.492187.496093-2.898437 1.328124-4.085937 2.515624l-35.171875 35.171876c-4.078125 4.074218-4.078125 10.6875 0 14.765624l41.414062 41.414063c4.074219 4.074219 10.6875 4.074219 14.761719 0l9.992187-9.992187c-27.9375-14.464844-34.480468-57.53125-26.910156-83.875zm0 0" fill="#f6e3a3"/><path d="m64.183594 242.289062-49.9375 49.9375-11.1875-11.1875c-4.078125-4.078124-4.078125-10.691406 0-14.765624l35.171875-35.171876c4.074219-4.078124 10.6875-4.078124 14.761719 0zm0 0" fill="#89d47f"/><path d="m40.5625 265.910156c-2.066406-13.175781-1.320312-26.625 1.753906-37.324218-1.492187.496093-2.898437 1.328124-4.085937 2.515624l-35.171875 35.171876c-4.078125 4.074218-4.078125 10.6875 0 14.765624l11.1875 11.1875zm0 0" fill="#5ec783"/><path d="m49.304688 305.300781c-.914063 0-1.839844-.167969-2.742188-.523437-3.855469-1.515625-5.75-5.867188-4.234375-9.722656 2.75-6.996094 7.894531-10.492188 12.03125-13.300782 3.945313-2.679687 6.042969-4.234375 6.9375-7.5625 1.078125-4 5.195313-6.367187 9.191406-5.296875 4 1.074219 6.371094 5.1875 5.296875 9.1875-2.382812 8.867188-8.519531 13.035157-12.996094 16.078125-3.480468 2.363282-5.496093 3.824219-6.503906 6.382813-1.160156 2.953125-3.988281 4.757812-6.980468 4.757812zm0 0" fill="#4e5660"/></svg>